<?xml version="1.0" standalone="no"?>
<!DOCTYPE svg PUBLIC "-//W3C//DTD SVG 20010904//EN"
 "http://www.w3.org/TR/2001/REC-SVG-20010904/DTD/svg10.dtd">
<svg version="1.0" xmlns="http://www.w3.org/2000/svg"
 width="460.000000pt" height="145.000000pt" viewBox="0 0 460.000000 145.000000"
 preserveAspectRatio="xMidYMid meet">

<g transform="translate(0.000000,145.000000) scale(0.100000,-0.100000)"
fill="#000000" stroke="none">
<path d="M694 1185 c-92 -20 -180 -69 -251 -140 -74 -74 -115 -153 -139 -268
-14 -72 -14 -84 1 -160 23 -119 65 -199 149 -283 51 -51 93 -81 150 -109 71
-35 88 -40 174 -43 55 -3 118 1 151 8 150 33 300 156 336 274 19 64 12 70 -16
14 -31 -58 -36 -30 -14 76 9 44 15 95 13 111 -3 26 -6 22 -28 -39 -24 -66 -42
-92 -132 -184 -122 -125 -278 -152 -433 -76 -86 41 -145 100 -183 182 -23 49
-27 70 -27 157 0 95 2 104 37 176 71 146 190 217 347 206 42 -2 85 -8 96 -11
11 -4 2 2 -19 13 -47 25 -150 28 -239 6 -48 -11 -56 -11 -47 0 20 25 104 47
195 52 76 4 99 2 146 -16 83 -31 169 -91 212 -146 39 -51 47 -53 22 -6 -23 45
-125 132 -191 163 -55 26 -191 59 -232 57 -10 0 -44 -7 -78 -14z"/>
<path d="M1477 1172 l-27 -28 0 -202 0 -202 148 0 c144 0 149 1 171 24 17 18
22 33 19 67 l-3 44 -97 3 -97 3 -3 157 -3 157 -40 3 c-33 2 -45 -2 -68 -26z
m103 -146 l0 -153 38 -7 c20 -3 65 -6 100 -6 l62 0 0 -35 0 -36 -137 3 -138 3
-3 193 -2 192 40 0 40 0 0 -154z m-103 -33 c-3 -10 -5 -2 -5 17 0 19 2 27 5
18 2 -10 2 -26 0 -35z m3 -73 c0 -27 -3 -50 -7 -50 -5 0 -6 22 -5 50 5 65 12
65 12 0z"/>
<path d="M1528 1163 c6 -2 18 -2 25 0 6 3 1 5 -13 5 -14 0 -19 -2 -12 -5z"/>
<path d="M1528 993 c7 -3 16 -2 19 1 4 3 -2 6 -13 5 -11 0 -14 -3 -6 -6z"/>
<path d="M1528 973 c7 -3 16 -2 19 1 4 3 -2 6 -13 5 -11 0 -14 -3 -6 -6z"/>
<path d="M1528 943 c7 -3 16 -2 19 1 4 3 -2 6 -13 5 -11 0 -14 -3 -6 -6z"/>
<path d="M1578 803 c34 -2 88 -2 120 0 31 2 3 3 -63 3 -66 0 -92 -1 -57 -3z"/>
<path d="M1900 1171 l-30 -30 2 -198 3 -198 45 -3 c37 -2 50 1 68 21 22 23 22
28 20 228 l-3 204 -38 3 c-30 3 -43 -2 -67 -27z m100 -186 l0 -195 -35 0 c-34
0 -35 2 -36 38 -1 20 -3 71 -4 112 -2 41 -1 112 2 158 l5 82 34 0 34 0 0 -195z
m-100 -59 c-7 -7 -10 10 -10 55 0 101 14 129 18 35 2 -46 -2 -84 -8 -90z m10
-38 c0 -7 -5 -20 -10 -28 -8 -12 -10 -9 -10 13 0 15 5 27 10 27 6 0 10 -6 10
-12z"/>
<path d="M1958 1163 c7 -3 16 -2 19 1 4 3 -2 6 -13 5 -11 0 -14 -3 -6 -6z"/>
<path d="M1958 973 c7 -3 16 -2 19 1 4 3 -2 6 -13 5 -11 0 -14 -3 -6 -6z"/>
<path d="M2120 1173 c-22 -18 -30 -33 -27 -47 6 -28 63 -235 88 -318 l20 -68
49 0 c67 0 90 29 119 152 12 51 32 137 45 190 26 107 23 118 -30 118 -43 0
-81 -33 -94 -81 -13 -47 -25 -43 -41 14 -7 23 -17 48 -22 55 -17 21 -73 14
-107 -15z m127 -83 c24 -85 37 -110 50 -97 3 4 16 47 28 95 l21 87 37 3 c25 2
37 -1 37 -10 0 -13 -57 -254 -79 -335 -11 -41 -13 -43 -51 -43 -39 0 -40 1
-54 53 -35 122 -86 318 -86 328 0 6 16 9 36 7 l36 -3 25 -85z m-60 -152 c-3
-8 -6 -5 -6 6 -1 11 2 17 5 13 3 -3 4 -12 1 -19z"/>
<path d="M2178 1163 c7 -3 16 -2 19 1 4 3 -2 6 -13 5 -11 0 -14 -3 -6 -6z"/>
<path d="M2378 1163 c7 -3 16 -2 19 1 4 3 -2 6 -13 5 -11 0 -14 -3 -6 -6z"/>
<path d="M2541 1174 l-31 -26 0 -204 0 -204 148 0 c144 0 149 1 171 24 17 18
22 33 19 67 -3 43 -4 44 -41 49 l-39 5 31 29 c25 24 31 38 31 73 l0 43 -86 0
c-64 0 -85 3 -82 13 3 7 30 13 74 15 90 4 116 25 112 92 l-3 45 -136 3 c-135
3 -137 2 -168 -24z m299 -28 c0 -33 -1 -33 -52 -40 -29 -3 -75 -6 -101 -6
l-48 0 3 -37 3 -38 88 -3 88 -3 -3 -37 -3 -37 -88 -3 -88 -3 3 -32 3 -32 75
-3 c113 -3 120 -6 120 -47 l0 -36 -137 3 -138 3 -3 193 -2 192 140 0 140 0 0
-34z m-295 -160 c0 -57 -3 -102 -7 -99 -15 9 -9 203 6 203 1 0 1 -47 1 -104z"/>
<path d="M2643 1163 c37 -2 96 -2 130 0 34 2 4 3 -68 3 -71 0 -99 -1 -62 -3z"/>
<path d="M2658 993 c29 -2 74 -2 100 0 26 2 2 3 -53 3 -55 0 -76 -1 -47 -3z"/>
<path d="M2608 973 c12 -2 30 -2 40 0 9 3 -1 5 -23 4 -22 0 -30 -2 -17 -4z"/>
<path d="M2733 973 c15 -2 37 -2 50 0 12 2 0 4 -28 4 -27 0 -38 -2 -22 -4z"/>
<path d="M2598 943 c7 -3 16 -2 19 1 4 3 -2 6 -13 5 -11 0 -14 -3 -6 -6z"/>
<path d="M2638 803 c34 -2 90 -2 125 0 34 2 6 3 -63 3 -69 0 -97 -1 -62 -3z"/>
<path d="M1580 630 c-22 -5 -52 -27 -82 -58 l-48 -51 0 -170 c0 -161 1 -170
20 -176 57 -18 117 26 122 90 3 35 6 40 28 40 24 0 25 -3 28 -62 3 -57 5 -63
27 -69 30 -8 64 3 93 29 21 20 22 27 22 184 0 181 -8 212 -57 231 -41 16 -113
22 -153 12z m151 -25 c16 -9 34 -27 39 -41 6 -14 10 -95 10 -180 l0 -155 -37
3 -38 3 -3 63 -3 63 -57 -3 -57 -3 -3 -62 -3 -63 -39 0 -40 0 0 156 c0 211 13
232 138 233 39 1 75 -5 93 -14z m-254 -277 c-2 -18 -4 -4 -4 32 0 36 2 50 4
33 2 -18 2 -48 0 -65z m203 -65 c-1 -24 -2 -26 -11 -10 -5 9 -7 22 -4 27 10
17 15 11 15 -17z"/>
<path d="M1582 493 l3 -48 58 -3 57 -3 0 51 0 50 -61 0 -60 0 3 -47z m63 -23
c0 -18 -33 -26 -47 -12 -6 6 -7 15 -3 22 10 16 50 8 50 -10z"/>
<path d="M1528 513 c7 -3 16 -2 19 1 4 3 -2 6 -13 5 -11 0 -14 -3 -6 -6z"/>
<path d="M1528 463 c7 -3 16 -2 19 1 4 3 -2 6 -13 5 -11 0 -14 -3 -6 -6z"/>
<path d="M1738 463 c7 -3 16 -2 19 1 4 3 -2 6 -13 5 -11 0 -14 -3 -6 -6z"/>
<path d="M1528 293 c7 -3 16 -2 19 1 4 3 -2 6 -13 5 -11 0 -14 -3 -6 -6z"/>
<path d="M1528 273 c7 -3 16 -2 19 1 4 3 -2 6 -13 5 -11 0 -14 -3 -6 -6z"/>
<path d="M1528 243 c7 -3 16 -2 19 1 4 3 -2 6 -13 5 -11 0 -14 -3 -6 -6z"/>
<path d="M1738 243 c7 -3 16 -2 19 1 4 3 -2 6 -13 5 -11 0 -14 -3 -6 -6z"/>
<path d="M1911 614 l-31 -26 0 -170 c0 -97 4 -178 10 -189 18 -33 64 -49 144
-49 73 0 77 1 117 37 65 59 69 72 69 251 0 137 -2 161 -16 166 -32 12 -63 5
-93 -20 l-31 -26 0 -133 c0 -138 -5 -154 -45 -139 -12 5 -15 32 -15 153 0 101
-4 151 -12 159 -20 20 -65 14 -97 -14z m90 -36 c1 -24 3 -74 3 -113 4 -161 2
-153 41 -161 19 -3 46 -3 60 0 l25 6 0 155 0 155 40 0 40 0 0 -155 c0 -218
-11 -235 -150 -235 -58 0 -73 4 -97 24 l-28 24 -3 171 -3 171 35 0 c35 0 36
-1 37 -42z m-91 -163 c0 -75 -3 -105 -10 -95 -5 8 -10 65 -10 125 0 75 3 105
10 95 5 -8 10 -64 10 -125z m200 42 c0 -50 -3 -67 -10 -57 -13 20 -13 143 0
135 6 -3 10 -39 10 -78z"/>
<path d="M1958 603 c7 -3 16 -2 19 1 4 3 -2 6 -13 5 -11 0 -14 -3 -6 -6z"/>
<path d="M2168 603 c7 -3 16 -2 19 1 4 3 -2 6 -13 5 -11 0 -14 -3 -6 -6z"/>
<path d="M1958 463 c7 -3 16 -2 19 1 4 3 -2 6 -13 5 -11 0 -14 -3 -6 -6z"/>
<path d="M2168 463 c7 -3 16 -2 19 1 4 3 -2 6 -13 5 -11 0 -14 -3 -6 -6z"/>
<path d="M2043 243 c15 -2 39 -2 55 0 15 2 2 4 -28 4 -30 0 -43 -2 -27 -4z"/>
<path d="M2414 630 c-36 -11 -114 -91 -114 -117 0 -10 -2 -63 -4 -118 -7 -179
16 -215 141 -215 85 0 115 12 161 65 56 63 54 117 -5 123 -21 2 -40 -5 -61
-23 -23 -19 -40 -25 -64 -23 l-33 3 -3 76 c-2 58 1 79 12 89 20 16 46 6 53
-20 11 -41 74 -38 119 7 22 22 25 32 20 62 -7 48 -55 91 -100 91 -18 0 -46 2
-62 4 -16 3 -43 1 -60 -4z m71 -20 c-58 -7 -57 -7 19 -5 66 1 81 -1 96 -17 23
-25 32 -69 17 -86 -17 -21 -61 -11 -65 16 -2 12 -9 22 -15 23 -7 1 -30 3 -52
5 -60 5 -65 -4 -65 -126 0 -119 1 -120 65 -120 46 0 65 9 65 31 0 15 7 19 35
19 44 0 52 -17 30 -63 -21 -45 -51 -57 -139 -57 -65 0 -75 3 -97 26 -23 25
-24 31 -24 171 l0 145 28 24 c24 21 37 24 95 22 l67 -1 -60 -7z m-162 -135
c-3 -9 -8 -14 -10 -11 -3 3 -2 9 2 15 9 16 15 13 8 -4z m-6 -97 c-2 -13 -4 -5
-4 17 -1 22 1 32 4 23 2 -10 2 -28 0 -40z"/>
<path d="M2447 573 c18 -2 50 -2 70 0 21 2 7 4 -32 4 -38 0 -55 -2 -38 -4z"/>
<path d="M2378 463 c7 -3 16 -2 19 1 4 3 -2 6 -13 5 -11 0 -14 -3 -6 -6z"/>
<path d="M2378 383 c7 -3 16 -2 19 1 4 3 -2 6 -13 5 -11 0 -14 -3 -6 -6z"/>
<path d="M2458 243 c18 -2 45 -2 60 0 15 2 0 4 -33 4 -33 0 -45 -2 -27 -4z"/>
<path d="M2751 613 c-26 -23 -31 -35 -31 -70 0 -42 1 -43 34 -43 67 0 66 4 66
-165 0 -151 0 -153 23 -159 31 -7 68 3 95 27 21 19 22 29 22 147 0 129 6 150
40 150 9 0 27 11 39 24 17 18 22 33 19 67 l-3 44 -136 3 c-136 3 -136 3 -168
-25z m297 -30 c-3 -33 -6 -38 -27 -35 -13 2 -34 1 -47 -2 l-24 -6 0 -156 0
-155 -37 3 -38 3 -5 155 -5 155 -47 3 c-47 3 -48 4 -48 38 l0 34 141 0 140 0
-3 -37z m-207 -136 c-10 -9 -11 -8 -5 6 3 10 9 15 12 12 3 -3 0 -11 -7 -18z
m9 -73 c0 -34 -4 -53 -10 -49 -5 3 -10 28 -10 56 0 27 5 49 10 49 6 0 10 -25
10 -56z"/>
<path d="M2858 603 c34 -2 88 -2 120 0 31 2 3 3 -63 3 -66 0 -92 -1 -57 -3z"/>
<path d="M2818 573 c12 -2 32 -2 45 0 12 2 2 4 -23 4 -25 0 -35 -2 -22 -4z"/>
<path d="M2973 573 c9 -2 25 -2 35 0 9 3 1 5 -18 5 -19 0 -27 -2 -17 -5z"/>
<path d="M2908 463 c7 -3 16 -2 19 1 4 3 -2 6 -13 5 -11 0 -14 -3 -6 -6z"/>
<path d="M2908 383 c7 -3 16 -2 19 1 4 3 -2 6 -13 5 -11 0 -14 -3 -6 -6z"/>
<path d="M2908 243 c7 -3 16 -2 19 1 4 3 -2 6 -13 5 -11 0 -14 -3 -6 -6z"/>
<path d="M3171 614 l-31 -26 0 -204 0 -204 25 -6 c14 -3 39 -1 56 6 56 24 59
36 59 251 0 170 -2 198 -16 203 -32 12 -63 5 -93 -20z m94 -189 l0 -190 -37
-3 -38 -3 0 196 0 196 38 -3 37 -3 0 -190z m-96 -17 c-3 -146 -18 -167 -18
-27 -1 102 2 129 16 129 2 0 3 -46 2 -102z"/>
<path d="M3819 612 l-31 -28 1 -199 c1 -144 5 -201 14 -207 25 -16 58 -7 96
28 l40 35 15 -30 c27 -51 76 -52 129 -3 l27 26 0 191 c0 135 -4 195 -12 203
-23 23 -66 13 -108 -24 -22 -20 -40 -31 -40 -25 0 21 -49 61 -74 61 -14 0 -40
-13 -57 -28z m136 -72 c21 -44 45 -80 52 -80 10 0 13 21 13 80 l0 80 33 0 34
0 5 -162 c3 -90 4 -178 1 -195 -5 -30 -9 -33 -39 -33 -32 0 -36 4 -74 80 -22
44 -45 80 -50 80 -6 0 -10 -34 -10 -80 l0 -80 -40 0 -40 0 0 195 0 195 38 0
c38 0 38 -1 77 -80z m-135 -145 c0 -52 -4 -85 -10 -85 -6 0 -9 16 -6 38 3 20
5 58 5 85 1 26 3 47 6 47 3 0 5 -38 5 -85z"/>
<path d="M4058 603 c7 -3 16 -2 19 1 4 3 -2 6 -13 5 -11 0 -14 -3 -6 -6z"/>
<path d="M3888 463 c12 -2 32 -2 45 0 12 2 2 4 -23 4 -25 0 -35 -2 -22 -4z"/>
<path d="M4048 463 c6 -2 18 -2 25 0 6 3 1 5 -13 5 -14 0 -19 -2 -12 -5z"/>
<path d="M4048 273 c7 -3 16 -2 19 1 4 3 -2 6 -13 5 -11 0 -14 -3 -6 -6z"/>
<path d="M3868 243 c7 -3 16 -2 19 1 4 3 -2 6 -13 5 -11 0 -14 -3 -6 -6z"/>
<path d="M4048 243 c6 -2 18 -2 25 0 6 3 1 5 -13 5 -14 0 -19 -2 -12 -5z"/>
<path d="M3412 586 l-47 -45 -5 -113 c-10 -223 6 -248 151 -248 l90 0 49 49
49 49 3 108 c4 154 1 179 -32 214 -27 29 -31 30 -120 30 l-91 0 -47 -44z m245
10 c28 -24 28 -25 31 -163 3 -139 3 -140 -23 -171 -26 -31 -29 -32 -110 -32
-74 0 -87 3 -112 24 l-28 24 0 147 0 147 28 24 c25 21 38 24 107 24 69 0 82
-3 107 -24z m-267 -202 c0 -48 -4 -73 -10 -69 -5 3 -10 40 -10 81 0 48 4 73
10 69 6 -3 10 -40 10 -81z"/>
<path d="M3492 538 c-8 -8 -12 -48 -12 -114 0 -82 3 -104 16 -115 15 -12 16
-11 10 6 -10 34 -9 166 2 177 5 5 18 8 28 6 17 -3 19 -14 19 -101 0 -91 1 -97
21 -97 37 0 44 19 44 127 0 91 -2 103 -19 113 -27 14 -94 13 -109 -2z m95
-130 c-3 -8 -6 -5 -6 6 -1 11 2 17 5 13 3 -3 4 -12 1 -19z"/>
<path d="M3438 463 c7 -3 16 -2 19 1 4 3 -2 6 -13 5 -11 0 -14 -3 -6 -6z"/>
<path d="M3648 463 c7 -3 16 -2 19 1 4 3 -2 6 -13 5 -11 0 -14 -3 -6 -6z"/>
<path d="M3438 433 c7 -3 16 -2 19 1 4 3 -2 6 -13 5 -11 0 -14 -3 -6 -6z"/>
<path d="M3648 433 c7 -3 16 -2 19 1 4 3 -2 6 -13 5 -11 0 -14 -3 -6 -6z"/>
<path d="M3438 293 c6 -2 18 -2 25 0 6 3 1 5 -13 5 -14 0 -19 -2 -12 -5z"/>
<path d="M3458 273 c7 -3 16 -2 19 1 4 3 -2 6 -13 5 -11 0 -14 -3 -6 -6z"/>
<path d="M3523 243 c15 -2 39 -2 55 0 15 2 2 4 -28 4 -30 0 -43 -2 -27 -4z"/>
</g>
</svg>
